<?xml version="1.0" standalone="no"?>
<!DOCTYPE svg PUBLIC "-//W3C//DTD SVG 20010904//EN"
 "http://www.w3.org/TR/2001/REC-SVG-20010904/DTD/svg10.dtd">
<svg version="1.0" xmlns="http://www.w3.org/2000/svg"
 width="244.000000pt" height="70.000000pt" viewBox="0 0 244.000000 70.000000"
 preserveAspectRatio="xMidYMid meet">

<g transform="translate(0.000000,70.000000) scale(0.100000,-0.100000)"
fill="#000000" stroke="none">
<path d="M780 588 l1 -103 110 -68 110 -68 75 48 c41 26 73 52 71 57 -3 10
-273 186 -339 222 l-28 15 0 -103z"/>
<path d="M100 494 c-70 -13 -100 -56 -100 -144 0 -59 20 -114 47 -128 32 -16
91 -23 143 -16 45 6 51 9 48 28 -3 18 -11 22 -71 26 -80 6 -87 13 -87 92 0 75
14 88 91 88 56 0 59 1 59 25 0 17 -6 25 -17 25 -10 0 -34 2 -53 4 -19 2 -46 2
-60 0z"/>
<path d="M270 350 l0 -140 40 0 40 0 0 140 0 140 -40 0 -40 0 0 -140z"/>
<path d="M400 350 l0 -140 35 0 35 0 0 60 0 60 55 0 55 0 0 -60 0 -60 35 0 35
0 0 140 0 140 -35 0 -35 0 0 -50 0 -50 -55 0 -55 0 0 50 0 50 -35 0 -35 0 0
-140z"/>
<path d="M1290 350 l0 -140 100 0 c87 0 103 3 120 20 26 26 27 83 1 109 -17
17 -18 21 -5 32 21 17 18 75 -6 99 -17 17 -33 20 -115 20 l-95 0 0 -140z m155
60 c0 -22 -5 -25 -42 -28 -42 -3 -43 -2 -43 28 0 30 1 31 43 28 37 -3 42 -6
42 -28z m10 -115 c0 -29 -2 -30 -47 -33 l-48 -3 0 36 0 36 48 -3 c45 -3 47 -4
47 -33z"/>
<path d="M1642 477 c-6 -7 -29 -62 -51 -123 -21 -60 -42 -117 -46 -127 -7 -16
-3 -18 30 -15 34 3 40 7 50 38 11 34 13 35 65 35 52 0 54 -1 65 -35 10 -30 16
-35 48 -38 l37 -3 -41 112 c-59 166 -57 164 -105 167 -25 2 -45 -2 -52 -11z
m64 -82 c20 -48 18 -55 -16 -55 -16 0 -30 3 -30 6 0 12 23 84 27 84 2 0 11
-16 19 -35z"/>
<path d="M1867 484 c-4 -4 -7 -67 -7 -141 l0 -133 35 0 35 0 0 98 0 97 53 -95
52 -95 45 0 45 0 3 138 3 137 -35 0 -35 0 -3 -96 -3 -96 -50 94 c-49 92 -50
93 -90 96 -23 2 -44 0 -48 -4z"/>
<path d="M2180 350 l0 -140 35 0 35 0 0 60 c0 33 4 60 9 60 6 0 31 -27 56 -60
43 -56 49 -60 86 -60 l40 0 -47 63 c-26 34 -51 67 -55 72 -5 6 13 38 42 75 27
35 49 65 49 67 0 2 -17 3 -37 3 -34 0 -42 -6 -80 -55 -24 -30 -47 -55 -53 -55
-5 0 -10 25 -10 55 l0 55 -35 0 -35 0 0 -140z"/>
</g>
</svg>
