<?xml version="1.0" standalone="no"?>
<!DOCTYPE svg PUBLIC "-//W3C//DTD SVG 20010904//EN"
 "http://www.w3.org/TR/2001/REC-SVG-20010904/DTD/svg10.dtd">
<svg version="1.0" xmlns="http://www.w3.org/2000/svg"
 width="646.000000pt" height="168.000000pt" viewBox="0 0 646.000000 168.000000"
 preserveAspectRatio="xMidYMid meet">

<g transform="translate(0.000000,168.000000) scale(0.100000,-0.100000)"
fill="#000000" stroke="none">
<path d="M3805 1670 c-209 -33 -345 -123 -418 -277 -30 -63 -32 -75 -32 -173
1 -143 23 -200 116 -293 89 -89 172 -127 449 -207 285 -83 348 -118 364 -204
16 -85 -33 -159 -132 -196 -154 -59 -338 -34 -444 59 -42 36 -95 136 -104 193
-4 21 -11 38 -16 38 -20 0 -283 -73 -292 -81 -14 -12 18 -108 67 -204 28 -56
63 -102 112 -151 114 -116 233 -160 450 -170 173 -8 304 13 413 67 288 141
360 485 149 716 -61 67 -142 121 -223 151 -33 11 -147 46 -254 78 -291 84
-348 119 -337 209 6 61 40 103 106 133 158 72 363 17 457 -125 23 -34 43 -66
45 -72 4 -8 295 63 308 75 9 8 -56 128 -103 191 -81 110 -211 195 -347 228
-81 19 -256 27 -334 15z"/>
<path d="M5994 1448 c-282 -487 -396 -690 -388 -698 5 -4 68 -28 140 -53 l130
-45 83 141 c162 274 491 846 491 851 0 3 -76 6 -169 6 l-169 0 -118 -202z"/>
<path d="M0 835 l0 -806 151 3 150 3 -1 267 -1 268 361 0 360 0 2 -267 3 -268
150 0 150 0 3 803 2 802 -155 0 -155 0 0 -380 0 -380 -360 0 -360 0 2 380 3
380 -152 0 -153 0 0 -805z"/>
<path d="M1792 838 l3 -803 150 0 150 0 3 272 2 273 238 0 c274 0 335 10 445
67 193 102 309 322 278 530 -32 218 -186 394 -392 448 -43 12 -141 15 -467 15
l-412 0 2 -802z m825 495 c161 -86 189 -287 57 -403 -66 -57 -80 -60 -339 -60
l-235 0 0 246 0 245 238 -3 c223 -3 239 -4 279 -25z"/>
</g>
</svg>
